<svg
  width="1706.667"
  height="1506.667"
  version="1.0"
  xmlns="http://www.w3.org/2000/svg"
  viewBox="0 0 1280 1130"
>
  <path
    d="M626.6 1.1c-20 2.7-40.2 14.1-53.6 30.1-3.8 4.6-43.2 71.8-128.4 219.4C89.2 865.9 12.3 999.1 8.8 1006c-6.1 12.1-8.1 21.1-8.1 37.5-.1 11.5.3 15.4 2.1 22 9.1 32.7 35 56.7 68.1 62.9 7.5 1.4 61.4 1.6 569.1 1.6s561.6-.2 569.1-1.6c33.1-6.2 59-30.2 68.1-62.9 1.8-6.6 2.2-10.5 2.1-22 0-16.4-2-25.4-8.1-37.5-2.1-4.1-75.6-131.7-163.3-283.5s-212.6-368-277.5-480.4C748.7 100.5 710.8 35.8 707 31.2c-11.2-13.4-27.7-23.9-44.5-28.3-9.3-2.4-25.6-3.2-35.9-1.8z"
    fill="#cdd5e6"
  />
</svg>
